<?xml version="1.0" encoding="utf-8"?>
<!-- Generator: Adobe Illustrator 24.1.2, SVG Export Plug-In . SVG Version: 6.00 Build 0)  -->
<svg version="1.1" id="Layer_1" xmlns="http://www.w3.org/2000/svg" xmlns:xlink="http://www.w3.org/1999/xlink" x="0px" y="0px"
	 viewBox="0 0 581 396" style="enable-background:new 0 0 581 396;" xml:space="preserve">
<style type="text/css">
	.st0{fill:#DCE0F7;}
	.st1{fill:#B0B8D8;}
	.st2{fill:#F4EBDB;}
	.st3{fill:#7A9FCF;}
	.st4{fill:#E07141;}
	.st5{fill:#3F435B;}
	.st6{fill:#5E637D;}
	.st7{fill:#FFFFFF;}
	.st8{fill:#8075B2;}
	.st9{fill:#E1E4F6;}
	.st10{fill:#9C95CF;}
	.st11{fill:#B5BFE6;}
	.st12{fill:#2A2837;}
	.st13{fill:#5D5A73;}
	.st14{fill:#EBC6C5;}
	.st15{fill:#080D44;}
	.st16{fill:#E49582;}
	.st17{fill:#E17565;}
	.st18{fill:#B9C2DD;}
</style>
<g>
	<g>
		<g>
			<g>
				<path class="st0" d="M579.64,46.53L0.11,48.93l1.37,330.12c0.04,9.54,8.9,17.24,19.79,17.2l541.27-2.24
					c10.24-0.04,18.52-8.38,18.47-18.63L579.64,46.53z"/>
				<path class="st1" d="M579.52,18.47C579.48,8.23,571.14-0.04,560.9,0L19.63,2.24C8.74,2.28-0.05,11.31,0,22.39l0.11,27.76
					l579.53-2.4L579.52,18.47z"/>
			</g>
		</g>
		<path class="st2" d="M489.89,22.26c1.4,7.39-4.95,13.74-12.34,12.34c-4.13-0.78-7.45-4.11-8.23-8.24
			c-1.4-7.38,4.96-13.74,12.34-12.34C485.78,14.8,489.11,18.13,489.89,22.26z"/>
		<path class="st3" d="M527.38,22.26c1.4,7.39-4.95,13.74-12.34,12.34c-4.13-0.78-7.45-4.11-8.23-8.24
			c-1.4-7.38,4.96-13.74,12.34-12.34C523.27,14.8,526.6,18.13,527.38,22.26z"/>
		<path class="st4" d="M563.18,22.26c1.4,7.39-4.96,13.74-12.34,12.34c-4.13-0.78-7.45-4.11-8.23-8.24
			c-1.4-7.38,4.96-13.74,12.34-12.34C559.07,14.8,562.4,18.13,563.18,22.26z"/>
		<g>
			<g>
				<g>
					<g>
						<g>
							<path class="st5" d="M50.66,395.32h284.08l-52.35-168.94l-202.95,1.76c-25.6,0.22-45.35,22.8-42.41,48.47L50.66,395.32z"/>
						</g>
					</g>
				</g>
				<g>
					<g>
						<g>
							<path class="st6" d="M83.06,395.32h207.02V226.6l-178.24,1.55c-25.6,0.22-45.35,22.8-42.41,48.47L83.06,395.32z"/>
						</g>
					</g>
				</g>
				<g>
					<g>
						<g>
							<g>
								<g>
									<g>
										<path class="st7" d="M263.65,197.14c0.06,0.15,0.01,0.06-0.03-0.02L263.65,197.14z"/>
									</g>
								</g>
							</g>
						</g>
						<g>
							<g>
								<g>
									<g>
										<g>
											<g>
												<path class="st8" d="M364.53,395.32c-2.16-6.75-4.64-14.05-7.49-21.69l-59.3,21.69H364.53z"/>
												<path class="st9" d="M255.92,395.32h44.19l57.9-22.18c-16.13-43.26-35.04-97.24-40.64-114.52
													c-6.99-21.55-31.77-53.86-56.13-45.24c-25.63,9.08-52.73,59.32-43.64,81.31C228.47,320.96,242.19,359.51,255.92,395.32z
													"/>
											</g>
										</g>
									</g>
								</g>
							</g>
						</g>
						<path class="st8" d="M308.14,395.32c0.9-7.98,1.77-15.83,2.59-23.43l-225.3,6.81c-1.53,5.51-3.07,11.05-4.61,16.62H308.14z"/>
						<path class="st8" d="M320.46,274.21c-4.68-78.98-97.75-90.82-120.79-88.62c-7.92,0.68-17.15,2.47-26.89,5.04
							c-35.33,9.33-31.72,20.2-43.9,35.98c0.3,0.02-21.05,71.73-43.44,152.09l225.3-6.81C316.66,317.09,320.46,274.21,320.46,274.21
							z"/>
						<g>
							<g>
								<g>
									<g>
										<path class="st7" d="M240.26,223.26c0.06,0.15,0.01,0.06-0.03-0.02L240.26,223.26z"/>
									</g>
								</g>
							</g>
						</g>
						<g>
							<g>
								<g>
									<g>
										<g>
											<path class="st7" d="M159.42,295.98c0.05,0.14,0.01,0.06-0.03-0.02L159.42,295.98z"/>
										</g>
									</g>
								</g>
							</g>
						</g>
						<g>
							<g>
								<g>
									<g>
										<g>
											<g>
												<path class="st8" d="M153.96,395.32c4.63-32.78,9.82-64.87,19.96-86.51c12.68-27.05,20.71-95.77-3.46-110.69
													c-22.97-14.18-83.11,50.91-91.69,79.34c-6.69,22.19-23.62,72.29-30.03,117.86H153.96z"/>
											</g>
										</g>
									</g>
								</g>
							</g>
						</g>
					</g>
				</g>
				<path class="st8" d="M234.26,395.32l-29.72-51.47c-0.32-0.14-0.64-0.29-0.96-0.43c-21.28-9.69-39.12-27.32-44.15-48.74
					c-4.56-19.44,1.53-39.67,0.01-59.51c-0.96-12.6-7.88-25.42-23.85-23.37c-11.91,1.53-21.37,13.75-29.44,21.12
					c-24.1,22-43.58,51.37-60.64,78.53c-16.94,26.96-27.7,54.47-28.6,83.88H234.26z"/>
				<g>
					<path class="st10" d="M130.32,394.59c-0.4,0-0.81-0.12-1.17-0.37c-0.93-0.65-1.15-1.92-0.51-2.85l33.48-47.93
						c0.65-0.93,1.92-1.15,2.85-0.51c0.93,0.65,1.15,1.92,0.51,2.85L132,393.72C131.6,394.29,130.96,394.59,130.32,394.59z"/>
				</g>
				<g>
					<path class="st11" d="M305.9,390.28c-1.18-0.03-2.08-0.97-2.05-2.1c0.17-6.95-0.17-14.33-1.01-21.92
						c-0.12-1.12,0.69-2.14,1.81-2.26c1.11-0.12,2.13,0.69,2.26,1.81c0.86,7.77,1.2,15.33,1.03,22.47
						C307.92,389.39,307.01,390.28,305.9,390.28z"/>
				</g>
				<g>
					<g>
						<path class="st12" d="M580.57,210.73H329.2l-31.81,184.6h262.16c11.61,0,21.02-9.5,21.02-21.21V210.73z"/>
					</g>
				</g>
				<path class="st13" d="M306.43,395.32c44.64-127.58,22.77-184.6,22.77-184.6l-31.81,184.6H306.43z"/>
				<path class="st8" d="M258.07,184.21c-5.95-8.45-14.68-14.43-23.49-19.75c-17.87-10.78-39.97-19.71-58.96-11.12
					c-16.44,7.44-25.4,26.85-24.4,45.01c0.58,10.63,4.26,21.32,11.5,29.07c6.74,7.21,16.07,11.45,25.57,13.93
					c15.97,4.17,33.08,3.8,48.85-1.08C261.53,232.75,273.98,206.82,258.07,184.21z"/>
				<path class="st7" d="M251.05,203.28c0,10.47-3.14,30.75-22.77,30.75c-19.63,0-48.31-20.28-48.31-30.75s15.91-18.96,35.54-18.96
					C235.14,184.32,251.05,192.81,251.05,203.28z"/>
				<g>
					<path class="st14" d="M209.46,100.42c-0.04,3.85,1.47,7.53,2.95,11.08c2.37,5.66,4.74,11.33,7.11,16.99
						c0.31,0.75,0.64,1.52,1.23,2.08c1.6,1.53,4.33,0.74,5.94-0.78c5.48-5.16,3.14-15.51,8.87-20.38c1.19-1.01,2.62-1.67,3.91-2.53
						c3.7-2.46,6.25-6.61,6.78-11.05c0.21-1.76,0.11-3.59-0.53-5.24c-0.77-2-2.27-3.63-3.95-4.93
						C229.37,76.09,209.65,84.05,209.46,100.42z"/>
					<path class="st14" d="M277.7,84.74c-2.71-2.69-6.18-4.93-7.39-8.63c-0.94-2.87-0.31-6.08-1.08-9c-0.85-3.2-3.48-5.8-6.61-6.51
						c-2.08-0.47-4.37-0.19-6.25-1.21c-2.16-1.16-3.2-3.7-4.76-5.63c-3.91-4.85-11.82-5.42-16.46-1.19
						c-1.74,1.59-3.14,3.77-5.34,4.49c-1.14,0.37-2.36,0.29-3.55,0.3c-3.16,0.02-6.39,0.72-9.07,2.48c-2.68,1.77-4.76,4.7-5.1,7.96
						c-0.28,2.67,0.58,5.29,1.05,7.93c0.47,2.63,0.45,5.64-1.25,7.69c-0.77,0.92-1.82,1.57-2.51,2.56
						c-1.08,1.55-1.07,3.68-0.44,5.45c0.64,1.77,1.81,3.26,2.97,4.71c0.7,0.88,1.44,1.79,2.45,2.25c2.38,1.07,5.09-0.79,6.73-2.92
						c1.64-2.13,2.94-4.72,5.28-5.96c2.12-1.13,4.69-0.87,6.88,0.02c2.19,0.89,4.11,2.35,6.09,3.66c2.75,1.81,5.76,3.37,9.03,3.62
						c3.26,0.25,6.82-1.06,8.6-3.94c0.59-0.96,1-2.08,1.83-2.82c1.36-1.21,3.45-1.02,5.01-0.16c2.3,1.27,3.78,3.69,4.9,6.13
						c1.12,2.44,2,5.04,3.57,7.2c3.37,4.64,11.32,4.71,12.58-1.96C285.94,95.59,281.36,88.37,277.7,84.74z"/>
					<g>
						<g>
							<g>
								<g>
									<g>
										<path class="st15" d="M273.88,116.01c0.07,1.11-0.08,2.22-0.42,3.33c-0.17-1.52-0.51-3.01-0.95-4.46
											C273.1,115.31,273.55,115.69,273.88,116.01z"/>
									</g>
								</g>
							</g>
						</g>
						<g>
							<g>
								<g>
									<g>
										<path class="st16" d="M207.33,212.9l11.69,4.37c8.06,3.01,16.81-2,18.51-10.5c2.46-10.06,8.33-34.91,8.48-34.88
											c7.67,1.86,22.66-8.63,27.03-27l9.09-35.12c-0.07-1.5-9.05-0.51-9.34-1.93c-2.15-1.88-11.15-8.59-21.62-10.07
											c-8.6-1.22-18.26,1.32-21.2,2.69c-7.03,3.27-12.75,38.95-11.1,40.48l-9.59-2.26l-12.98,53.17
											C194.12,200.68,198.88,209.74,207.33,212.9z"/>
									</g>
								</g>
							</g>
						</g>
						<g>
							<g>
								<g>
									<g>
										<path class="st7" d="M247.45,149.06c-0.13,2.11,1.22,4.1,3.4,4.63c2.18,0.53,4.28-0.63,5.11-2.57L247.45,149.06z"/>
									</g>
								</g>
							</g>
						</g>
						<g>
							<g>
								<g>
									<g>
										<path class="st14" d="M269.87,127.14c-0.24-0.06-0.44-0.23-0.52-0.48c-0.12-0.38,0.09-0.78,0.46-0.9
											c0.13-0.04,3.36-1.05,6.86,1.55c0.32,0.23,0.39,0.69,0.15,1.01c-0.23,0.32-0.68,0.39-1,0.16
											c-2.9-2.14-5.48-1.37-5.59-1.34C270.12,127.17,269.99,127.17,269.87,127.14z"/>
									</g>
								</g>
							</g>
						</g>
						<g>
							<g>
								<g>
									<g>
										<path class="st14" d="M245.48,121.46c-0.23-0.06-0.43-0.23-0.51-0.48c-0.12-0.38,0.09-0.78,0.46-0.91
											c0.13-0.04,3.36-1.05,6.86,1.55c0.32,0.23,0.39,0.69,0.15,1.01c-0.23,0.32-0.68,0.39-1,0.16
											c-2.93-2.16-5.56-1.35-5.59-1.34C245.73,121.49,245.6,121.49,245.48,121.46z"/>
									</g>
								</g>
							</g>
						</g>
						<g>
							<g>
								<g>
									<g>
										<g>
											<path class="st17" d="M241.69,172.61c-23.97-6.47-33.04-29.62-31.77-34.92c0.14-0.58,0.72-0.94,1.29-0.8
												c0.57,0.14,0.93,0.72,0.79,1.3c-0.88,3.69,6.98,26.04,30.19,32.31c1.21,0.25,2.49,0.4,3.75,0.43
												c0.59,0.01,1.06,0.51,1.04,1.11c-0.01,0.6-0.51,1.07-1.1,1.05C244.49,173.07,243.08,172.91,241.69,172.61z"/>
										</g>
									</g>
								</g>
							</g>
						</g>
						<g>
							<g>
								<g>
									<g>
										<path class="st17" d="M254.94,145.41c-0.52-0.13-0.88-0.64-0.81-1.19c0.08-0.59,0.61-1.01,1.2-0.93
											c2.38,0.31,3.34,0.06,4.28-0.19l0.55-0.14c0.23-0.05,0.35-0.19,0.42-0.3c0.1-0.17,0.13-0.38,0.07-0.58
											c-0.15-0.58,0.19-1.17,0.76-1.32c0.57-0.16,1.16,0.19,1.31,0.76c0.2,0.77,0.09,1.59-0.31,2.25
											c-0.39,0.66-1.02,1.12-1.77,1.29l-0.5,0.12c-1.08,0.28-2.3,0.6-5.09,0.24C255.02,145.42,254.98,145.42,254.94,145.41z"/>
									</g>
								</g>
							</g>
						</g>
						<g>
							<g>
								<g>
									<g>
										<path class="st15" d="M249.14,127.31c-0.33,1.4-1.24,2.38-2.03,2.19c-0.79-0.19-1.16-1.48-0.83-2.88
											c0.33-1.4,1.24-2.38,2.03-2.19C249.11,124.62,249.48,125.91,249.14,127.31z"/>
									</g>
								</g>
							</g>
						</g>
						<g>
							<g>
								<g>
									<g>
										<path class="st15" d="M273.07,133.28c-0.33,1.4-1.19,2.39-1.92,2.22c-0.73-0.18-1.05-1.46-0.71-2.86s1.19-2.39,1.92-2.22
											C273.09,130.6,273.41,131.88,273.07,133.28z"/>
									</g>
								</g>
							</g>
						</g>
						<g>
							<g>
								<g>
									<g>
										<path class="st16" d="M225.43,131.37c-0.75,9.36-5.72,15.4-11.11,13.48c-5.39-1.92-9.16-11.06-8.41-20.43
											c0.75-9.36,5.72-15.4,11.11-13.48C222.41,112.86,226.17,122,225.43,131.37z"/>
									</g>
								</g>
							</g>
						</g>
						<g>
							<g>
								<g>
									<g>
										<path class="st17" d="M215.52,131.37c-0.34-0.08-0.63-0.33-0.75-0.68c-0.2-0.56,0.08-1.18,0.63-1.39
											c0.34-0.13,0.62-0.43,0.77-0.83c0.15-0.39,0.13-0.79-0.04-1.1c-0.28-0.52-0.09-1.18,0.43-1.46
											c0.52-0.28,1.17-0.09,1.45,0.43c0.47,0.86,0.53,1.92,0.16,2.9c-0.37,0.99-1.11,1.75-2.03,2.09
											C215.94,131.41,215.72,131.42,215.52,131.37z"/>
									</g>
								</g>
							</g>
						</g>
						<g>
							<g>
								<g>
									<g>
										<g>
											<path class="st14" d="M284.19,107.41c-4.05-6.13-0.69-17.95-6.29-20.86c-8.19-4.26-27.78-3.4-36.89-2.59
												c-3.75,0.33-8.64,12.67-12.17,13.71c-1.81,0.53-3.57,1.15-5.27,1.87l-3.27,13.74c1.18,1.73,2.23,3.53,3.13,5.41
												c0.99-4.09,1.76-8.25,4.17-11.74c2.33-3.37,6.72-5.28,11.23-5.78c4.7-0.52,9.56,0.31,14.24,1.4
												c2.12,0.49,4.24,1.08,6.23,1.95c6.3,2.76,11.21,6.57,17.49,9.38c0.04,0.02,0.08,0.03,0.12,0.05
												C280.86,115.69,286.54,110.96,284.19,107.41z"/>
										</g>
									</g>
								</g>
							</g>
						</g>
					</g>
					<path class="st17" d="M237.96,134.68c-0.74,3.09-3.82,5-6.88,4.26c-3.07-0.74-4.95-3.85-4.22-6.95c0.74-3.09,3.82-5,6.88-4.26
						C236.81,128.47,238.7,131.58,237.96,134.68z"/>
					<path class="st17" d="M274.76,138.26c-2.73-0.2-5.29,1.61-5.95,4.39c-0.66,2.78,0.61,4.86,3.14,5.94L274.76,138.26z"/>
					<path class="st14" d="M221.29,121.62c-0.44,1.57-1.11,3.2-0.73,4.79c0.38,1.59,2.49,2.81,3.65,1.67
						c0.37-0.37,0.56-0.88,0.67-1.4c0.46-2.03,0.05-4.14-0.06-6.22c-0.31-5.94,2.02-11.97,6.25-16.12c0.98-0.97,2.14-1.98,2.28-3.35
						c0.14-1.36-0.85-2.67-2.11-3.18c-1.25-0.52-2.7-0.37-3.98,0.07c-2.46,0.84-4.54,2.74-5.61,5.13
						C219.1,108.75,223.01,115.53,221.29,121.62z"/>
				</g>
				<g>
					<path class="st10" d="M224.63,266.55c-0.62,0-1.23-0.28-1.63-0.81c-5.68-7.47-15.45-10.32-24.89-13.07
						c-2.56-0.75-5.2-1.52-7.73-2.37c-10.03-3.38-23.97-10.25-33.43-23.77c-8.52-12.18-11.1-27.68-6.73-40.45
						c0.37-1.07,1.53-1.64,2.6-1.27c1.07,0.37,1.64,1.53,1.27,2.6c-3.95,11.55-1.57,25.65,6.21,36.78
						c6.88,9.84,18.03,17.74,31.38,22.24c2.45,0.83,5.05,1.59,7.57,2.32c10.08,2.94,20.5,5.98,27,14.53
						c0.68,0.9,0.51,2.18-0.39,2.87C225.49,266.41,225.06,266.55,224.63,266.55z"/>
				</g>
				<g>
					<path class="st10" d="M236.86,265.54c-0.1,0-0.21-0.01-0.31-0.02c-1.12-0.17-1.89-1.22-1.72-2.33
						c1.35-8.85,7.46-15.37,13.36-21.67c2.79-2.98,5.67-6.05,7.95-9.29c7.59-10.78,9.3-25.67,4.36-37.93
						c-0.42-1.05,0.08-2.24,1.13-2.66c1.05-0.42,2.24,0.08,2.66,1.13c5.45,13.51,3.56,29.92-4.81,41.82
						c-2.44,3.47-5.43,6.66-8.31,9.74c-5.73,6.12-11.14,11.89-12.3,19.49C238.73,264.81,237.85,265.54,236.86,265.54z"/>
				</g>
				<g>
					<g>
						<path class="st10" d="M131.23,227.06c-0.55,0-1.1-0.22-1.51-0.66c-1.82-1.98-3.71-3.93-5.63-5.8
							c-0.81-0.79-0.82-2.09-0.03-2.89c0.79-0.81,2.09-0.82,2.89-0.03c1.96,1.92,3.91,3.93,5.77,5.95c0.77,0.83,0.71,2.13-0.12,2.89
							C132.22,226.88,131.72,227.06,131.23,227.06z"/>
					</g>
					<g>
						<path class="st10" d="M177.02,353.75c-1.22-0.05-2.1-1.01-2.05-2.14c0.11-2.46,0.16-4.97,0.16-7.46c0-3.19-0.09-6.42-0.27-9.6
							c-0.06-1.13,0.8-2.09,1.93-2.16c1.13-0.05,2.09,0.8,2.16,1.93c0.18,3.26,0.27,6.56,0.28,9.83c0,2.55-0.06,5.13-0.17,7.64
							C179.02,352.89,178.11,353.75,177.02,353.75z M175.11,319.31c-0.99,0-1.86-0.72-2.02-1.73c-0.87-5.59-2.01-11.22-3.42-16.72
							c-0.28-1.1,0.38-2.21,1.48-2.49c1.1-0.28,2.21,0.38,2.49,1.48c1.43,5.63,2.61,11.39,3.5,17.11c0.17,1.12-0.59,2.16-1.71,2.34
							C175.32,319.3,175.21,319.31,175.11,319.31z M166.59,285.89c-0.84,0-1.63-0.52-1.93-1.36c-1.92-5.35-4.12-10.65-6.54-15.77
							c-0.48-1.02-0.05-2.24,0.98-2.73c1.02-0.48,2.24-0.05,2.73,0.98c2.47,5.24,4.72,10.66,6.69,16.13
							c0.38,1.06-0.17,2.24-1.23,2.62C167.06,285.85,166.82,285.89,166.59,285.89z M151.85,254.7c-0.7,0-1.38-0.35-1.76-1
							c-2.92-4.88-6.12-9.65-9.49-14.18c-0.68-0.91-0.49-2.19,0.42-2.86c0.91-0.68,2.19-0.49,2.86,0.42
							c3.45,4.63,6.72,9.52,9.72,14.52c0.58,0.97,0.26,2.23-0.7,2.81C152.57,254.61,152.21,254.7,151.85,254.7z"/>
					</g>
					<g>
						<path class="st10" d="M173.97,379.02c-0.13,0-0.27-0.01-0.4-0.04c-1.11-0.22-1.83-1.3-1.6-2.41c0.53-2.63,0.99-5.31,1.39-7.96
							c0.17-1.12,1.22-1.89,2.33-1.72c1.12,0.17,1.89,1.21,1.72,2.33c-0.4,2.72-0.88,5.47-1.42,8.17
							C175.78,378.35,174.92,379.02,173.97,379.02z"/>
					</g>
				</g>
				<g>
					<path class="st7" d="M218.13,128.7c-0.29,0-0.59-0.13-0.79-0.37c-0.36-0.44-0.3-1.08,0.14-1.44c1.85-1.53,3.13-3.81,3.52-6.26
						c0.38-2.46-0.14-5.06-1.43-7.14c-0.79-1.26-2.13-2.53-3.57-2.36c-0.56,0.07-1.07-0.32-1.15-0.88
						c-0.07-0.56,0.32-1.07,0.88-1.15c2.39-0.32,4.45,1.5,5.57,3.31c1.55,2.49,2.17,5.6,1.71,8.54c-0.46,2.94-2,5.68-4.24,7.53
						C218.59,128.62,218.36,128.7,218.13,128.7z"/>
				</g>
				<path class="st7" d="M219.94,127.12c0,3.01-2.42,5.45-5.4,5.45c-2.98,0-5.4-2.44-5.4-5.45c0-3.01,2.42-5.45,5.4-5.45
					C217.52,121.66,219.94,124.1,219.94,127.12z"/>
			</g>
		</g>
	</g>
	<g>
		<path class="st18" d="M152.74,145.03H33.56c-1.13,0-2.05-0.92-2.05-2.05V87.48c0-1.13,0.92-2.05,2.05-2.05h119.18
			c1.13,0,2.05,0.92,2.05,2.05v55.51C154.78,144.11,153.87,145.03,152.74,145.03z M35.61,140.94h115.08V89.52H35.61V140.94z"/>
	</g>
</g>
</svg>
