<?xml version="1.0" encoding="utf-8"?>
<!-- Generator: Adobe Illustrator 24.1.2, SVG Export Plug-In . SVG Version: 6.00 Build 0)  -->
<svg version="1.1" id="Layer_1" xmlns="http://www.w3.org/2000/svg" xmlns:xlink="http://www.w3.org/1999/xlink" x="0px" y="0px"
	 viewBox="0 0 581 396" style="enable-background:new 0 0 581 396;" xml:space="preserve">
<style type="text/css">
	.st0{fill:#C0E1E6;}
	.st1{fill:#B0B8D8;}
	.st2{fill:#F4EBDB;}
	.st3{fill:#7A9FCF;}
	.st4{fill:#E07141;}
	.st5{fill:#A8C7D5;}
	.st6{fill:#94483C;}
	.st7{fill:#E49582;}
	.st8{fill:#FFFFFF;}
	.st9{fill:#080D44;}
	.st10{fill:#E17565;}
	.st11{fill:#4C3E52;}
</style>
<g>
	<g>
		<g>
			<g>
				<path class="st0" d="M579.68,46.46L0.96,49.18l1.55,329.66c0.04,9.53,8.89,17.21,19.77,17.16l540.51-2.54
					c10.23-0.05,18.48-8.38,18.44-18.61L579.68,46.46z"/>
				<path class="st1" d="M579.55,18.44C579.5,8.21,571.17-0.05,560.94,0L20.43,2.54C9.56,2.59,0.78,11.61,0.84,22.68l0.13,27.73
					l578.72-2.72L579.55,18.44z"/>
			</g>
		</g>
		<path class="st2" d="M486.64,22.28c1.4,7.37-4.94,13.72-12.32,12.33c-4.12-0.78-7.44-4.1-8.23-8.22
			c-1.4-7.37,4.94-13.72,12.32-12.33C482.53,14.84,485.85,18.16,486.64,22.28z"/>
		<path class="st3" d="M524.07,22.26c1.4,7.37-4.94,13.72-12.32,12.33c-4.12-0.78-7.44-4.1-8.23-8.22
			c-1.4-7.37,4.94-13.72,12.32-12.33C519.96,14.82,523.29,18.14,524.07,22.26z"/>
		<path class="st4" d="M559.82,22.24c1.4,7.37-4.94,13.72-12.32,12.33c-4.12-0.78-7.44-4.1-8.23-8.22
			c-1.4-7.37,4.94-13.72,12.32-12.33C555.71,14.8,559.04,18.12,559.82,22.24z"/>
	</g>
	<path class="st5" d="M469.15,394.13l85.76-0.05c13.37-0.01,24.21-10.85,24.2-24.23l0.29-322.47l-31.91,0.26
		c-9.53,12.6-15.3,31.93-18.66,47.69c-9.04,42.39-6.32,87.29,7.76,128.25c5.7,16.57,13.24,32.61,16.55,49.84
		c3.31,17.23,1.78,36.48-9.1,50.14c-1.48,1.86-3.51,3.74-5.84,3.43c-2.34-0.31-3.81-2.67-4.87-4.81
		c-10.9-21.87-15.12-47.09-11.94-71.37c1.55-11.86,4.63-24.75-1.18-35.15c-2.73-4.88-7.14-8.56-10.29-13.17
		c-9.15-13.34-6.28-31.19-5.48-47.41c0.99-20.1-1.96-40.78-11.3-58.55c-8.07-15.37-25.18-29.26-41.23-23.04
		c-6.61,2.56-11.67,8.15-15.44,14.21c-8.66,13.92-11.61,31.37-8.01,47.42c0.91,4.06,2.23,8.18,1.61,12.3
		c-0.74,4.88-4.05,8.87-6.7,13.02c-8.98,14.09-10.71,32.65-4.48,48.19c5.83,14.54,17.96,26.14,22,41.29
		c3.47,13.01,0.5,26.75-0.58,40.18C437.86,320.09,447.16,369.33,469.15,394.13z"/>
	<g>
		<path class="st6" d="M364.08,240.89c0.64-2.43,0.79-5.02,0.44-7.49c-0.92-6.42-4.72-12.11-9.29-16.71
			c-1.33-1.34-2.74-2.6-4.21-3.78c-8.84-7.1-14-17.86-12.89-29.13c0.46-4.68,0.03-9.42-1.15-13.95c-0.98-1.52-2.2-2.85-3.77-3.9
			c-0.77-0.19-1.55-0.44-2.35-0.76c-1.51-0.62-0.85-3.09,0.68-2.47c0.52,0.21,1.03,0.39,1.54,0.54c0.29-0.09,0.62-0.07,0.96,0.14
			c0.07,0.04,0.12,0.1,0.19,0.14c7.26,1.5,12.3-3.73,13.58-11.35c1.12-6.66-2.02-11.47-5.64-16.62c-6.47-9.22-6.38-17.61-5.33-28.61
			c0.7-7.31,0.62-14.4-3.3-20.92c-2.56-4.25-6.54-7.53-10.49-10.45c-4.51-3.32-11.39-8.26-18.01-9.8c-2.06-0.2-4.14-0.28-6.21-0.24
			c-0.64,0.12-1.28,0.29-1.9,0.53c-0.58,0.23-1.03,0.02-1.3-0.36c-10.43,0.84-20.58,4.75-28.88,11.1
			c-4.83,3.69-10.61,6.1-16.67,6.69c-11.54,1.13-22.72,6.04-31.21,13.94c-8.05,7.48-13.6,17.56-15.83,28.3
			c-1.43,6.91-5.26,13.04-10.35,17.94c-6.49,6.25-11.04,14.54-12.96,23.37c-2.07,9.53-7.82,17.93-16.48,22.44
			c-6,3.12-11.15,8.1-14.48,14.01c-4.55,8.06-6.05,17.49-5.33,26.78c0.49,6.3-1.12,12.5-3.82,18.22
			c-4.99,10.55-5.26,23.36-0.22,33.92c3.6,7.54,9.8,13.71,17.19,17.63c9.4,4.99,16.18,13.65,18.25,24.08
			c1.72,8.64,6.2,16.74,12.93,22.45c7.18,6.09,16.64,9.23,26.04,9.15c8.22-0.07,16.1,2.45,22.83,7.15c0.04,0.03,0.08,0.06,0.12,0.09
			c3.7,2.53,8.26,3.44,12.72,3.86c22.89,2.13,46.38-8.65,60.3-26.81c4.24-5.53,10.21-9.34,16.81-11.56
			c10.44-3.52,19.62-11.02,25.91-20.19c8.38-12.23,12.13-27.12,13.35-41.88c0.24-2.92-0.02-6.31-0.94-9.21
			C363.24,251.84,362.67,246.25,364.08,240.89z"/>
		<g>
			<g>
				<g>
					<g>
						<g>
							<path class="st7" d="M328.36,249.33c-24.84-2.08-49.26-0.69-71.85,2.83C277.73,267.17,309.93,266.23,328.36,249.33z"/>
							<path class="st8" d="M328.36,249.33c-18.43,16.9-50.63,17.84-71.85,2.83c-11.77,1.84-23.06,4.23-33.64,7.02
								c23.02,36.48,75.07,42.96,112.75,30.62c17.93-5.42,30.77-17.23,41.23-31.69C360.76,253.46,344.47,250.68,328.36,249.33z"/>
							<path class="st8" d="M451.93,392.69c9.85-48.51,23.05-74.95,23.05-74.95c-22.79-17.89-72.82-52.3-98.13-59.62
								c-10.46,14.45-23.3,26.27-41.23,31.69c-37.68,12.34-89.73,5.86-112.75-30.62c-44.42,11.72-99.16,49.45-104.41,60.3
								c0.28,0.02,11.66,27.1,20.53,73.38L451.93,392.69z"/>
						</g>
					</g>
				</g>
			</g>
		</g>
		<g>
			<g>
				<g>
					<g>
						<g>
							<path class="st7" d="M310.22,188.89l-40.64,0.02l0.04,66.49l2.66,1.82c11.22,7.68,26.07,7.5,37.1-0.44l0.88-0.63
								L310.22,188.89z"/>
						</g>
					</g>
				</g>
			</g>
			<g>
				<g>
					<g>
						<g>
							<g>
								<path class="st9" d="M317.66,132.53c0.46,1.56,0.62,3.2,0.52,4.9c-0.74-2.12-1.7-4.11-2.78-6.04
									C316.35,131.8,317.11,132.19,317.66,132.53z"/>
							</g>
						</g>
					</g>
				</g>
			</g>
			<g>
				<g>
					<g>
						<g>
							<g>
								<path class="st7" d="M283.96,131.47c-10.21,7.09-20.94,15.35-28.31,25.69l0.02,26.74c0,7.13,2.65,13.73,6.47,19.23
									c8.69,12.51,18.13,17.99,29.2,17.99c9.58-1.44,19.77-9.11,25.65-21.33c2.19-4.55,4.14-9.73,4.14-14.97l-0.03-54.44
									c0-3.71-3.02-6.72-6.74-6.72l-17.88,0.01C292.2,126.06,288.02,128.65,283.96,131.47z"/>
							</g>
						</g>
					</g>
				</g>
			</g>
			<g>
				<g>
					<g>
						<g>
							<g>
								<path class="st10" d="M291.03,221.11c-19.23,0.01-33.56-19.37-34.98-32.71c-0.05-0.5,0.31-0.95,0.81-1.01
									c0.49-0.07,0.95,0.31,1.01,0.81c1.35,12.68,14.93,31.09,33.15,31.07c16.81-0.01,28.88-26.85,28.88-30.51
									c0-0.51,0.41-0.91,0.91-0.92c0.51,0,0.92,0.41,0.92,0.91C321.74,193.96,308.65,221.1,291.03,221.11z"/>
							</g>
						</g>
					</g>
				</g>
			</g>
			<g>
				<g>
					<g>
						<g>
							<g>
								<path class="st8" d="M283.56,190.3c0.52,3.06,3.05,5.44,6.23,5.43c3.19,0,5.71-2.38,6.22-5.45L283.56,190.3z"/>
							</g>
						</g>
					</g>
				</g>
			</g>
			<g>
				<g>
					<g>
						<g>
							<g>
								<path class="st6" d="M304.95,154.66c-0.38,0-0.74-0.19-0.95-0.53c-0.32-0.52-0.17-1.21,0.35-1.54
									c0.17-0.11,4.35-2.68,10.12-0.18c0.56,0.25,0.83,0.91,0.58,1.48c-0.25,0.57-0.9,0.82-1.47,0.59
									c-4.64-2.02-7.91-0.07-8.05,0.02C305.35,154.61,305.15,154.66,304.95,154.66z"/>
							</g>
						</g>
					</g>
				</g>
			</g>
			<g>
				<g>
					<g>
						<g>
							<g>
								<path class="st6" d="M266.22,155.17c-0.38,0-0.74-0.18-0.95-0.53c-0.32-0.53-0.17-1.22,0.35-1.55
									c0.17-0.11,4.36-2.68,10.12-0.18c0.56,0.25,0.83,0.91,0.58,1.48c-0.25,0.57-0.92,0.82-1.47,0.59
									c-4.65-2.03-7.91-0.07-8.05,0.02C266.62,155.12,266.42,155.17,266.22,155.17z"/>
							</g>
						</g>
					</g>
				</g>
			</g>
			<g>
				<g>
					<g>
						<g>
							<path class="st10" d="M287.71,181.97c-0.69,0-1.29-0.52-1.36-1.22c-0.08-0.75,0.46-1.43,1.21-1.52
								c2.94-0.33,4.02-0.93,5.08-1.51l0.63-0.34c0.25-0.13,0.35-0.33,0.4-0.48c0.08-0.25,0.05-0.54-0.08-0.78
								c-0.35-0.67-0.09-1.5,0.58-1.85c0.67-0.35,1.5-0.09,1.85,0.58c0.46,0.89,0.56,1.94,0.26,2.88c-0.29,0.91-0.92,1.66-1.76,2.09
								l-0.56,0.3c-1.23,0.68-2.62,1.44-6.1,1.83C287.81,181.96,287.76,181.97,287.71,181.97z"/>
						</g>
					</g>
				</g>
			</g>
			<g>
				<g>
					<g>
						<g>
							<g>
								<path class="st7" d="M303.48,172.36c-2.81,11.58,1.44,20.96,9.49,20.96c8.05,0,16.86-9.39,19.67-20.96
									c2.81-11.58-1.44-20.96-9.49-20.96C315.1,151.4,306.29,160.79,303.48,172.36z"/>
							</g>
						</g>
					</g>
				</g>
			</g>
			<g>
				<g>
					<g>
						<g>
							<g>
								<path class="st7" d="M271.71,175.2c-1.12-4.6-3.22-8.79-5.82-12.24c-4.41,9.12-11.55,17.12-20.51,19.84
									c4.05,7.39,10.89,13.37,16.86,13.36C270.29,196.16,274.53,186.77,271.71,175.2z"/>
							</g>
						</g>
					</g>
				</g>
			</g>
			<g>
				<g>
					<g>
						<g>
							<path class="st9" d="M269.33,161.93c-0.04,0.26-0.09,0.5-0.09,0.78c0,1.91,0.93,3.46,2.07,3.46c1.14,0,2.07-1.55,2.07-3.46
								c0-0.3-0.06-0.57-0.1-0.85L269.33,161.93z"/>
						</g>
					</g>
				</g>
			</g>
			<g>
				<g>
					<g>
						<g>
							<path class="st9" d="M306.81,161.18c-0.13,0.46-0.21,0.96-0.21,1.5c0,1.91,0.89,3.46,1.99,3.46c1.1,0,1.98-1.55,1.98-3.46
								c0-0.57-0.1-1.09-0.24-1.57L306.81,161.18z"/>
						</g>
					</g>
				</g>
			</g>
			<g>
				<g>
					<g>
						<g>
							<path class="st10" d="M324.81,174.44c-0.27,0-0.54-0.08-0.78-0.24c-1.01-0.7-1.68-1.85-1.85-3.16
								c-0.16-1.32,0.21-2.6,1.02-3.53c0.5-0.57,1.37-0.63,1.94-0.13c0.57,0.5,0.63,1.37,0.13,1.94c-0.29,0.34-0.43,0.86-0.36,1.39
								c0.07,0.53,0.32,0.99,0.69,1.25c0.62,0.43,0.78,1.28,0.35,1.91C325.67,174.23,325.24,174.44,324.81,174.44z"/>
						</g>
					</g>
				</g>
			</g>
			<g>
				<g>
					<g>
						<g>
							<path class="st10" d="M253.84,175.66c-0.44,0-0.86-0.21-1.13-0.59c-0.43-0.62-0.28-1.48,0.35-1.91
								c0.36-0.25,0.62-0.72,0.68-1.25c0.07-0.53-0.07-1.05-0.36-1.39c-0.5-0.57-0.44-1.44,0.13-1.93c0.57-0.5,1.44-0.44,1.94,0.13
								c0.81,0.93,1.19,2.21,1.02,3.53c-0.16,1.31-0.83,2.47-1.85,3.17C254.38,175.58,254.11,175.66,253.84,175.66z"/>
						</g>
					</g>
				</g>
			</g>
		</g>
		<g>
			<g>
				<g>
					<g>
						<g>
							<path class="st6" d="M268.67,156.27c0.47-1.63,0.85-3.3,1.5-4.87c1.83-4.44,5.75-7.84,10.2-9.8
								c4.45-1.96,9.41-2.58,14.29-2.59c4.67-0.01,14.73-5.64,19.17-7.08c5.54-1.8,7.72,1.54,10.82-3.31
								c0.24-0.38-2.84-2.62-2.98-3.05c-0.14-0.43-0.62-0.65-1.05-0.81c-8.22-3.05-17.28-3.06-26.04-2.27
								c-10.7,0.96-21.8,3.27-30.04,10.04c-2.98,2.45-5.5,5.42-7.71,8.56c-1,1.42-1.95,2.89-2.71,4.45
								c-2.65,5.45-2.86,11.69-3.03,17.72c-0.12,4.38-0.37,8.85,0.05,13.21c0.47,4.91,4.6,0.16,6.47-1.69
								C262.78,169.64,266.65,163.22,268.67,156.27z"/>
						</g>
					</g>
				</g>
			</g>
		</g>
		<ellipse class="st10" cx="266.63" cy="173.77" rx="5.26" ry="5.26"/>
		<path class="st10" d="M318.57,173.74c0,2.9-2.35,5.26-5.26,5.26c-2.91,0-5.27-2.35-5.27-5.25c0-2.9,2.35-5.26,5.26-5.26
			C316.21,168.48,318.57,170.84,318.57,173.74z"/>
		<path class="st8" d="M321.35,149.17l0.02,41.13c11.03-0.42,19.85-9.46,19.84-20.58C341.21,158.61,332.38,149.58,321.35,149.17z"/>
		<g>
			<path class="st8" d="M330.54,158.81c-0.08,0-0.16,0-0.24-0.01c-1.18-0.13-2.03-1.2-1.9-2.37c1.03-9.23,0.67-17.05-1.1-23.9
				c-2.11-8.16-6.42-15.11-12.13-19.58c-4.4-3.44-9.89-5.6-15.46-6.06c-1.18-0.1-2.06-1.14-1.96-2.32c0.1-1.18,1.14-2.06,2.33-1.96
				c6.39,0.54,12.7,3.01,17.75,6.96c6.45,5.04,11.29,12.82,13.64,21.89c1.91,7.36,2.3,15.69,1.21,25.45
				C332.55,158,331.62,158.81,330.54,158.81z"/>
		</g>
		<path class="st11" d="M516.19,392.65l18.79-64.86c0-7.43-6.04-13.45-13.48-13.44l-459.12,0.26c-7.44,0-13.47,6.03-13.46,13.46
			l14.04,64.84L516.19,392.65z"/>
	</g>
</g>
</svg>
