<?xml version="1.0" encoding="utf-8"?>
<!-- Generator: Adobe Illustrator 24.1.2, SVG Export Plug-In . SVG Version: 6.00 Build 0)  -->
<svg version="1.1" id="Layer_1" xmlns="http://www.w3.org/2000/svg" xmlns:xlink="http://www.w3.org/1999/xlink" x="0px" y="0px"
	 viewBox="0 0 581 396" style="enable-background:new 0 0 581 396;" xml:space="preserve">
<style type="text/css">
	.st0{fill:#E7D7BE;}
	.st1{fill:#E8BF8F;}
	.st2{fill:#F4EBDB;}
	.st3{fill:#7A9FCF;}
	.st4{fill:#E07141;}
	.st5{fill:#F6E1DF;}
	.st6{fill:#4C3E52;}
	.st7{fill:#FFFFFF;}
	.st8{fill:#080D44;}
	.st9{fill:#E49582;}
	.st10{fill:#E17565;}
	.st11{fill:#EBBDBC;}
	.st12{fill:#383F8C;}
</style>
<g>
	<g>
		<g>
			<path class="st0" d="M1.36,46.49l579.29,2.4l-1.37,329.98c-0.04,9.54-8.89,17.23-19.78,17.19l-541.04-2.24
				C8.22,393.78-0.04,385.44,0,375.2L1.36,46.49z"/>
			<path class="st1" d="M0.68,18.47C0.72,8.22,9.07-0.04,19.33,0l542.01,2.24c10.9,0.05,19.7,9.06,19.66,20.15l-0.11,27.75
				L0.56,47.74L0.68,18.47z"/>
		</g>
	</g>
	<path class="st2" d="M487.34,26.55c1.4,7.38-4.95,13.73-12.34,12.33c-4.12-0.78-7.45-4.11-8.23-8.23
		c-1.4-7.38,4.95-13.73,12.33-12.33C483.23,19.1,486.56,22.43,487.34,26.55z"/>
	<path class="st3" d="M524.81,26.55c1.4,7.38-4.95,13.73-12.34,12.33c-4.12-0.78-7.45-4.11-8.23-8.23
		c-1.4-7.38,4.95-13.73,12.33-12.33C520.7,19.1,524.03,22.43,524.81,26.55z"/>
	<path class="st4" d="M560.59,26.55c1.4,7.38-4.95,13.73-12.34,12.33c-4.12-0.78-7.45-4.11-8.23-8.23
		c-1.4-7.38,4.95-13.73,12.33-12.33C556.49,19.1,559.81,22.43,560.59,26.55z"/>
	<g>
		<path class="st5" d="M414.4,395.33c-8.9-13.26-18.63-25.95-29.14-37.93c-10.22-11.66-21.42-22.85-35.17-29.84
			c-13.75-6.99-30.5-9.28-44.53-2.89c-18.42,8.4-28.21,30.14-28.12,50.64c0.03,6.78,0.96,13.45,2.51,20.01H414.4z"/>
		<path class="st6" d="M228.26,132.7c-4.8-5.23-4.7-14.1-10.28-18.47c-6.51-5.1-15.98-0.83-24.08-2.31
			c-7.94-1.45-13.96-8.36-21.76-10.44c-7.89-2.1-16.69,1.38-21.85,7.8c-5.16,6.41-6.83,15.3-5.33,23.44
			c0.71,3.86,2.09,7.74,1.44,11.61c-1.6,9.61-14.11,13.34-17.78,22.35c-2.99,7.31,0.71,15.44,2.85,23.06
			c0.52,1.85,0.95,3.82,0.43,5.67c-0.99,3.57-4.92,5.23-7.58,7.76c-5.91,5.62-4.4,17.07,2.76,20.92c1.62,0.87,3.46,1.42,4.75,2.72
			c1.49,1.51,1.98,3.72,2.66,5.75c3.21,9.5,12.62,16.47,22.51,16.68c9.89,0.21,19.58-6.36,23.18-15.71
			c1.28-3.32,1.93-7.05,4.33-9.65c4.1-4.43,11.05-3.55,17.04-3.49c10.27,0.11,21.73-4.46,25.17-14.28
			c1.76-5.01,0.99-11.35,4.55-15.62c4.65-5.57,7.86-1.96,13.46-0.74c7.7,1.69,13.24-2.63,15.94-9.83c2.96-7.91,2-17.75-1.5-25.32
			c-2.69-5.81-7.09-10.27-12.68-13.25C240.64,138.23,232.97,137.83,228.26,132.7z"/>
		<g>
			<g>
				<g>
					<g>
						<g>
							<g>
								<path class="st7" d="M330.69,245.82c0.07,0.19,0.01,0.08-0.04-0.03L330.69,245.82z"/>
							</g>
						</g>
					</g>
				</g>
				<g>
					<g>
						<g>
							<g>
								<g>
									<g>
										<path class="st5" d="M287.22,395.33H421.4c-11.64-32.79-21.7-62.05-25.82-74.81c-8.45-26.18-38.38-65.44-67.81-54.96
											c-30.97,11.03-63.71,72.07-52.72,98.79C278.84,373.57,282.93,384.04,287.22,395.33z"/>
									</g>
								</g>
							</g>
						</g>
					</g>
				</g>
				<path class="st5" d="M353.17,259.1c-36.23-24.4-83.14-28.92-99.79-27.32c-9.57,0.83-20.72,3-32.49,6.13
					c-15.33,4.07-24.57,8.38-30.83,13.12C235.25,294.62,303.81,292.81,353.17,259.1z"/>
				<path class="st5" d="M394.04,395.33c3.33-33.78,5.28-55.87,5.28-55.87c-2.27-38.57-21.8-63.95-46.15-80.35
					c-49.36,33.71-117.92,35.52-163.11-8.07c-11.17,8.46-12.78,18.3-22.22,30.58c0.27,0.02-14.03,48.53-32.53,113.71H394.04z"/>
				<g>
					<g>
						<g>
							<g>
								<path class="st7" d="M302.43,277.55c0.07,0.19,0.01,0.08-0.04-0.03L302.43,277.55z"/>
							</g>
						</g>
					</g>
				</g>
				<g>
					<g>
						<g>
							<g>
								<g>
									<path class="st7" d="M204.75,365.89c0.06,0.17,0.01,0.07-0.04-0.03L204.75,365.89z"/>
								</g>
							</g>
						</g>
					</g>
				</g>
			</g>
		</g>
		<g>
			<path class="st6" d="M337.03,127.37c0.29-4.07,0.15-8.04-0.37-11.87c-3.43-25.07-25.25-43.03-50.18-43.12
				c-12.11-0.04-24.11,0.9-35.3,6.29c-14.34,10.6-23.29,28.1-22.27,47.42c1.72,32.39,30.72,56.72,63.17,51.26
				C316.43,173.26,335.24,152.37,337.03,127.37z"/>
			<g>
				<g>
					<g>
						<g>
							<path class="st8" d="M325.85,125.39c0.27,1.41,0.27,2.87,0.02,4.34c-0.47-1.93-1.15-3.77-1.95-5.56
								C324.74,124.62,325.38,125.04,325.85,125.39z"/>
						</g>
					</g>
				</g>
			</g>
			<g>
				<g>
					<g>
						<g>
							<path class="st9" d="M241.9,237.81c-0.63,5.21,8.12,10.36,13.26,10.91l32.5,4.92c1.39-1.26,3.55-24.89,3.7-26.05
								c0,0,2.86-25.79,3.23-25.74c11.53,1.51,28.52-9.71,34.51-38.4l5.71-43.55c0.33-2.5-1.72-4.68-4.24-4.5
								c-3.29,0.24-7.14,0.72-7.49-0.29c-3.06-2.04-15.66-9.12-29.26-9.25c-11.17-0.11-13.69,4.1-17.22,6.35
								c-8.42,5.39-19.2,52.85-16.84,54.53l-7.28-1.04L241.9,237.81z"/>
						</g>
					</g>
				</g>
			</g>
			<g>
				<g>
					<g>
						<g>
							<path class="st7" d="M297.6,172.3c0.18,2.73,2.24,5.06,5.11,5.37c2.87,0.31,5.36-1.53,6.1-4.17L297.6,172.3z"/>
						</g>
					</g>
				</g>
			</g>
			<g>
				<g>
					<g>
						<g>
							<g>
								<path class="st10" d="M294.99,203.09c-30.89-4.13-42.62-34-41.91-40.88c0.05-0.51,0.5-0.88,1.01-0.83
									c0.5,0.05,0.87,0.51,0.82,1.02c-0.68,6.53,10.63,34.87,40.29,38.84c0.5,0.07,0.86,0.54,0.79,1.05
									C295.93,202.79,295.49,203.14,294.99,203.09z"/>
							</g>
						</g>
					</g>
				</g>
			</g>
			<g>
				<g>
					<g>
						<g>
							<path class="st10" d="M306.56,166.33c-0.69-0.07-1.23-0.67-1.23-1.39c0-0.77,0.61-1.4,1.37-1.4c3.08-0.01,4.28-0.5,5.43-0.97
								l0.68-0.27c0.28-0.11,0.42-0.31,0.48-0.46c0.1-0.24,0.1-0.5,0-0.76c-0.29-0.72,0.05-1.53,0.75-1.83
								c0.7-0.29,1.51,0.04,1.8,0.76c0.38,0.95,0.38,2.02-0.02,2.94c-0.39,0.91-1.12,1.61-2.05,1.96l-0.61,0.24
								c-1.33,0.55-2.84,1.16-6.46,1.18C306.66,166.34,306.61,166.34,306.56,166.33z"/>
						</g>
					</g>
				</g>
			</g>
			<g>
				<g>
					<g>
						<g>
							<path class="st9" d="M266.57,153.34c0.6,12.14-4.74,20.73-11.94,19.19c-7.2-1.55-13.52-12.64-14.12-24.79
								c-0.6-12.14,4.74-20.73,11.94-19.19C259.64,130.1,265.96,141.19,266.57,153.34z"/>
						</g>
					</g>
				</g>
			</g>
			<g>
				<g>
					<g>
						<g>
							<path class="st10" d="M253.93,155.02c-0.44-0.05-0.85-0.31-1.08-0.74c-0.35-0.68-0.1-1.53,0.58-1.89
								c0.41-0.22,0.72-0.66,0.84-1.19c0.12-0.53,0.04-1.04-0.23-1.41c-0.45-0.62-0.31-1.5,0.3-1.95c0.61-0.45,1.48-0.32,1.92,0.31
								c0.74,1.03,0.99,2.37,0.69,3.69c-0.3,1.33-1.12,2.43-2.24,3.03C254.47,155,254.19,155.05,253.93,155.02z"/>
						</g>
					</g>
				</g>
			</g>
			<path class="st6" d="M264.4,140.83c-0.09,1.22-0.15,2.48-0.71,3.56c-0.56,1.08-1.78,1.92-2.94,1.59
				c-1.2-0.34-1.78-1.69-2.16-2.89c-3.87-12.21-2.91-26.45,4.62-36.76c1.53-2.09,3.36-4.05,5.68-5.16c2.32-1.12,5.2-1.28,7.39,0.09
				c7.67,4.79-2.22,12.9-4.86,17.37C267.46,125.35,265,133,264.4,140.83z"/>
			<path class="st10" d="M285.17,157.31c-0.61,3.82-4.15,6.41-7.91,5.79c-3.76-0.62-6.32-4.21-5.71-8.03
				c0.61-3.82,4.15-6.41,7.91-5.79C283.22,149.9,285.77,153.5,285.17,157.31z"/>
			<path class="st10" d="M330.38,154.27c-2.97-0.21-5.66,1.87-6.14,4.91c-0.48,3.04,1.43,5.89,4.32,6.64
				c0.41-1.62,0.74-3.25,1.04-4.89C329.77,158.69,329.92,156.46,330.38,154.27z"/>
			<path class="st8" d="M294.96,143.39c-0.26,1.62-1.28,2.8-2.28,2.64c-1-0.16-1.6-1.61-1.34-3.23c0.26-1.62,1.28-2.8,2.28-2.64
				C294.62,140.32,295.22,141.77,294.96,143.39z"/>
			<path class="st8" d="M327.39,147.95c-0.26,1.62-1.28,2.8-2.28,2.64c-1-0.16-1.6-1.61-1.34-3.23c0.26-1.62,1.28-2.8,2.28-2.64
				C327.04,144.88,327.64,146.33,327.39,147.95z"/>
			<g>
				<path class="st6" d="M297.07,136.82c-0.26,0.01-0.52-0.06-0.75-0.23c-1.61-1.23-3.98-1.39-5.74-0.4
					c-0.55,0.31-1.25,0.11-1.56-0.45c-0.31-0.56-0.11-1.27,0.45-1.58c2.57-1.44,5.87-1.22,8.23,0.57c0.51,0.38,0.61,1.11,0.23,1.63
					C297.71,136.65,297.39,136.81,297.07,136.82z"/>
			</g>
			<g>
				<path class="st6" d="M329.88,142.29c-0.27,0.01-0.55-0.07-0.78-0.25c-1.55-1.26-3.69-1.71-5.6-1.18
					c-0.59,0.17-1.24-0.19-1.4-0.81c-0.17-0.62,0.19-1.26,0.8-1.43c2.6-0.72,5.53-0.1,7.64,1.61c0.49,0.4,0.57,1.13,0.17,1.63
					C330.5,142.12,330.2,142.27,329.88,142.29z"/>
			</g>
		</g>
		<path class="st5" d="M220.66,395.33c-7.62-9.18-13.24-19.65-15.9-31.01c-5.52-23.62,1.85-48.19,0.02-72.3
			c-1.16-15.3-14.97-40.68-14.97-40.68s-23.61,15.39-49.41,37.94c-20.7,18.1-52.85,65.93-77,106.05H220.66z"/>
		<ellipse class="st9" cx="265.45" cy="248.02" rx="36.92" ry="16.43"/>
		<g>
			<path class="st7" d="M268.9,275.29c2.97,0,30.84-0.36,42.97-13.48c4.12-4.45,5.98-9.87,5.53-16.11
				c-0.08-1.14-1.03-2.03-2.19-1.92c-1.13,0.08-1.97,1.08-1.89,2.22c0.36,5.1-1.09,9.34-4.43,12.97
				c-11.32,12.26-39.93,12.17-40.19,12.18c-29.5,0-40.71-7.14-44.92-13.14c-4.26-6.05-2.3-12.03-2.22-12.29
				c0.37-1.08-0.19-2.26-1.26-2.64c-1.06-0.38-2.22,0.18-2.6,1.26c-0.12,0.33-2.77,8.15,2.68,15.99c6.9,9.93,23.15,14.97,48.3,14.97
				C268.72,275.29,268.8,275.29,268.9,275.29z"/>
		</g>
		<g>
			<g>
				<g>
					<g>
						<g>
							<g>
								<g>
									<g>
										<g>
											<g>
												<path class="st9" d="M471.62,298.28l37.43,2.05c13.87,0.76,21.06,10.64,19.8,24.77l-3.05,69.89l-62.54-3.43
													L471.62,298.28z"/>
											</g>
										</g>
									</g>
								</g>
							</g>
						</g>
					</g>
				</g>
				<g>
					<g>
						<g>
							<g>
								<g>
									<path class="st5" d="M532.17,395.33c0.28-6.58,0.5-12.11,0.66-16.12c0.15-3.84-2.55-7.17-6.29-7.78l-67.99-6.84
										c-7.09-1.16-22.69,6.81-24.33,13.9c-1.09,4.71-2.4,10.4-3.85,16.84H532.17z"/>
								</g>
							</g>
						</g>
					</g>
				</g>
			</g>
			<g>
				<path class="st9" d="M510.29,270.33c1.13,2.1,9.88,26.62,15.46,38.08c2.63,5.4,2.97,11.67,0.79,17.27
					c-3.23,8.29-8.05,18.16-21.84,25.86c-19.57,10.92-44.05-4.11-49.54-24.15l-11.78-28.34L510.29,270.33z"/>
				<path class="st8" d="M397.45,176.09l-6.16,151.51c-0.2,5,3.74,9.17,8.67,9.17h80.33c4.65,0,8.48-3.73,8.67-8.44l6.16-151.51
					c0.2-5-3.74-9.17-8.67-9.17h-80.33C401.47,167.64,397.64,171.37,397.45,176.09z"/>
				<g>
					<path class="st9" d="M492.86,317.88c-0.21-1.39,0.26-20.21,0.45-21.61c1.34-9.72,4.66-19.15,9.68-27.54
						c1.17-1.95,3.06-4.11,5.23-3.51c1.75,0.49,0.04-9.22,0.44-7.41c1.24,5.63,3.55,23.22,3.02,28.96
						c-0.6,6.5-1.63,13.03-4.14,19.04c-2.5,6.01-3.06,10.11-8.67,13.3c-0.73,0.42-4.6,6.65-5.7,7.22
						C493.17,326.31,493.76,323.83,492.86,317.88z"/>
					<path class="st9" d="M501.1,286.18c4.83-0.12,8.64-4.19,8.52-9.09l-1.36-55.13c-0.12-4.9-4.13-8.77-8.96-8.65
						c-4.83,0.12-8.64,4.19-8.52,9.09l1.36,55.13C492.26,282.43,496.27,286.3,501.1,286.18z"/>
					<path class="st9" d="M506.09,279.12c3.08-3.98,2.09-9.36-1.51-12.87c-8.28-8.07-24.79-24.27-34.75-28.49
						c-4.6-1.95-9.27-2.72-13.51,3.06c-3.12,4,2.09,12.17,6.53,14.45c12.58,6.45,22.77,17.32,30.56,25.38
						C496.9,284.26,503,283.1,506.09,279.12z"/>
					<path class="st9" d="M508.14,290.12c1.66-4.65-1.8-7.87-5.72-10.81c-9.17-6.89-24.58-12.46-34.73-13.62
						c-4.84-0.56-9.65,0.71-11.31,5.36c-1.66,4.65,0.51,10.46,5.29,11.48c11.26,2.39,22.59,6.23,35.16,12.96
						C501.15,297.79,506.48,294.77,508.14,290.12z"/>
					<path class="st9" d="M498.93,294.96c-9.01-3.34-20.65-5.03-28.46-4.51c-4.4,0.29-8.48,2.21-9.23,6.62
						c-0.75,4.41,2.11,9.24,6.53,9.37c9.18,0.26,18.59,1.52,29.09,4.51C498.78,305.79,499.8,300.32,498.93,294.96z"/>
					<g>
						<path class="st10" d="M505.7,285.64c0.34,0,0.68-0.11,0.96-0.34c0.66-0.54,0.76-1.52,0.23-2.19
							c-9.19-11.57-36.16-19.38-39.84-19.08c-0.84,0.05-1.47,0.79-1.42,1.64c0.05,0.85,0.77,1.52,1.62,1.46
							c2.41-0.1,28.81,7.3,37.25,17.93C504.8,285.44,505.25,285.64,505.7,285.64z"/>
					</g>
					<g>
						<path class="st10" d="M505.34,273.89c0.25,0,0.51-0.06,0.74-0.2c0.74-0.42,1.01-1.37,0.59-2.11
							c-5.92-10.8-17.4-23.23-27.92-30.23c-0.71-0.47-1.66-0.27-2.12,0.45c-0.46,0.72-0.27,1.68,0.44,2.15
							c9.99,6.65,21.31,18.9,26.92,29.14C504.28,273.61,504.81,273.89,505.34,273.89z"/>
					</g>
					<g>
						<path class="st10" d="M501.77,299.7c0.5,0,0.99-0.25,1.28-0.7c0.46-0.72,0.27-1.68-0.44-2.15c-7.18-4.78-15.52-7.47-24.1-7.79
							c-0.84-0.09-1.56,0.64-1.59,1.5c-0.03,0.86,0.63,1.58,1.48,1.61c8.03,0.3,15.82,2.81,22.53,7.28
							C501.19,299.62,501.48,299.7,501.77,299.7z"/>
					</g>
					<path class="st9" d="M489.82,311.48c1.23,1.99,2.82,4.44,2.45,6.76c1.36-0.36,1.36-1.38,2.13-2.57
						c1.44-2.22,1.85-5.3,0.39-7.51c-0.7-1.06-1.76-1.83-2.89-2.39c-0.97-0.48-2.04-0.81-3.1-0.7c-0.84,0.09-1.63,0.46-2.4,0.83
						c-0.68,0.32-1.38,0.62-2.02,1.01c0.47,0.85,2.06,1.21,2.88,1.81C488.27,309.46,489.17,310.4,489.82,311.48z"/>
					<g>
						<path class="st10" d="M492.27,319.79c0.85,0,1.53-0.7,1.53-1.56c0-4.84-2.86-12.05-10.75-12.05c-0.85,0-1.53,0.7-1.53,1.56
							c0,0.86,0.69,1.56,1.53,1.56c7.59,0,7.68,8.85,7.68,8.94C490.74,319.1,491.42,319.79,492.27,319.79z"/>
					</g>
				</g>
			</g>
			<g>
				<path class="st11" d="M431.93,395.33l3.4-16.08c1.51-6.96,8.95-11.86,16.95-11.11c1.11,0.11,2.12-0.74,2.22-1.88
					c0.1-1.14-0.73-2.15-1.85-2.25c-10.15-0.94-19.33,5.23-21.31,14.36l-3.58,16.96H431.93z"/>
			</g>
			<g>
				<path class="st12" d="M455.74,192.96c0-8.12,6.51-14.73,14.51-14.73c8,0,14.51,6.61,14.51,14.73s-6.51,14.73-14.51,14.73
					C462.25,207.68,455.74,201.08,455.74,192.96z M459.83,192.96c0,5.83,4.68,10.58,10.42,10.58c5.75,0,10.42-4.74,10.42-10.58
					c0-5.83-4.68-10.58-10.42-10.58C464.51,182.38,459.83,187.12,459.83,192.96z"/>
			</g>
		</g>
	</g>
	<ellipse class="st7" cx="249.48" cy="147.21" rx="15.74" ry="23.35"/>
	<g>
		<path class="st7" d="M247.54,131.86c-1.94-0.03-3.43-1.58-3.39-3.45c0.02-1.19,0.74-29.4,19.42-45.64
			c10.25-8.9,23.8-12.39,40.27-10.37c1.86,0.23,3.18,1.92,2.96,3.78c-0.23,1.86-1.93,3.17-3.78,2.96
			c-14.49-1.78-26.26,1.17-34.99,8.76c-16.43,14.28-17.09,40.37-17.09,40.64C250.9,130.38,249.38,131.86,247.54,131.86z"/>
	</g>
</g>
</svg>
